<?xml version="1.0" encoding="UTF-8"?>
<svg id="Layer_1" data-name="Layer 1" xmlns="http://www.w3.org/2000/svg" viewBox="0 0 1024 1024">
  <defs>
    <style>
      .cls-1 {
        fill: #6fec64;
      }

      .cls-2 {
        fill: #01cb7d;
      }
    </style>
  </defs>
  <polygon class="cls-1" points="831.23 758.81 802.48 758.81 802.48 730.06 764.78 730.06 764.78 758.81 736.03 758.81 736.03 796.51 764.78 796.51 764.78 825.26 802.48 825.26 802.48 796.51 831.23 796.51 831.23 758.81"/>
  <path class="cls-2" d="m11.5,443.19l436.54,436.54c35.45,35.45,92.93,35.45,128.39,0l436.07-436.07c0-68.88,0-107.49,0-176.37l-57.89-57.89-361,361c-44.94,44.94-117.8,44.94-162.74,0L69.39,208.93l-57.89,57.89c0,68.88,0,107.49,0,176.37Z"/>
  <path class="cls-1" d="m157.2,117.67l-39.51,39.51,332.34,332.34c34.36,34.36,90.06,34.36,124.41,0l332.34-332.34-39.51-39.51c-83.24,0-129.9,0-213.14,0l-141.9,141.9-141.9-141.9c-83.24,0-129.9,0-213.14,0Z"/>
</svg>